<mxfile host="app.diagrams.net" modified="2023-12-12T19:05:13.165Z" agent="Mozilla/5.0 (Windows NT 10.0; Win64; x64) AppleWebKit/537.36 (KHTML, like Gecko) Chrome/118.0.0.0 Safari/537.36 OPR/104.0.0.0" etag="PN8zz7Eymaq4uGZGsQXl" version="22.1.8" type="github">
  <diagram name="Page-1" id="5yad24NNrQFE9n1h9ydJ">
    <mxGraphModel dx="1393" dy="789" grid="1" gridSize="10" guides="1" tooltips="1" connect="1" arrows="1" fold="1" page="1" pageScale="1" pageWidth="827" pageHeight="1169" math="0" shadow="0">
      <root>
        <mxCell id="0" />
        <mxCell id="1" parent="0" />
        <mxCell id="GxZTiWTm0aN-phbukoy6-12" style="edgeStyle=orthogonalEdgeStyle;rounded=0;orthogonalLoop=1;jettySize=auto;html=1;" edge="1" parent="1" source="GxZTiWTm0aN-phbukoy6-1" target="GxZTiWTm0aN-phbukoy6-11">
          <mxGeometry relative="1" as="geometry" />
        </mxCell>
        <mxCell id="GxZTiWTm0aN-phbukoy6-1" value="Učení" style="rounded=1;whiteSpace=wrap;html=1;" vertex="1" parent="1">
          <mxGeometry x="180" y="330" width="120" height="60" as="geometry" />
        </mxCell>
        <mxCell id="GxZTiWTm0aN-phbukoy6-2" value="Filtr slovíček" style="rounded=1;whiteSpace=wrap;html=1;" vertex="1" parent="1">
          <mxGeometry x="570" y="335" width="120" height="50" as="geometry" />
        </mxCell>
        <mxCell id="GxZTiWTm0aN-phbukoy6-5" style="edgeStyle=orthogonalEdgeStyle;rounded=0;orthogonalLoop=1;jettySize=auto;html=1;entryX=0.5;entryY=0;entryDx=0;entryDy=0;entryPerimeter=0;" edge="1" parent="1" source="GxZTiWTm0aN-phbukoy6-3" target="GxZTiWTm0aN-phbukoy6-26">
          <mxGeometry relative="1" as="geometry">
            <mxPoint x="250" y="180" as="targetPoint" />
          </mxGeometry>
        </mxCell>
        <mxCell id="GxZTiWTm0aN-phbukoy6-3" value="Start" style="strokeWidth=2;html=1;shape=mxgraph.flowchart.start_2;whiteSpace=wrap;" vertex="1" parent="1">
          <mxGeometry x="190" y="40" width="100" height="100" as="geometry" />
        </mxCell>
        <mxCell id="GxZTiWTm0aN-phbukoy6-4" value="" style="ellipse;shape=doubleEllipse;whiteSpace=wrap;html=1;" vertex="1" parent="1">
          <mxGeometry x="470" y="630" width="60" height="60" as="geometry" />
        </mxCell>
        <mxCell id="GxZTiWTm0aN-phbukoy6-8" value="Import slovíčka" style="rounded=1;whiteSpace=wrap;html=1;" vertex="1" parent="1">
          <mxGeometry x="20" y="190" width="120" height="60" as="geometry" />
        </mxCell>
        <mxCell id="GxZTiWTm0aN-phbukoy6-13" style="edgeStyle=orthogonalEdgeStyle;rounded=0;orthogonalLoop=1;jettySize=auto;html=1;entryX=0.5;entryY=0;entryDx=0;entryDy=0;" edge="1" parent="1" source="GxZTiWTm0aN-phbukoy6-11" target="GxZTiWTm0aN-phbukoy6-2">
          <mxGeometry relative="1" as="geometry" />
        </mxCell>
        <mxCell id="GxZTiWTm0aN-phbukoy6-14" value="Ne" style="edgeLabel;html=1;align=center;verticalAlign=middle;resizable=0;points=[];" vertex="1" connectable="0" parent="GxZTiWTm0aN-phbukoy6-13">
          <mxGeometry x="-0.2488" y="1" relative="1" as="geometry">
            <mxPoint as="offset" />
          </mxGeometry>
        </mxCell>
        <mxCell id="GxZTiWTm0aN-phbukoy6-17" style="edgeStyle=orthogonalEdgeStyle;rounded=0;orthogonalLoop=1;jettySize=auto;html=1;exitX=0.5;exitY=0;exitDx=0;exitDy=0;exitPerimeter=0;entryX=1;entryY=0.5;entryDx=0;entryDy=0;entryPerimeter=0;" edge="1" parent="1" source="GxZTiWTm0aN-phbukoy6-11" target="GxZTiWTm0aN-phbukoy6-26">
          <mxGeometry relative="1" as="geometry">
            <mxPoint x="340" y="210" as="targetPoint" />
            <Array as="points">
              <mxPoint x="320" y="210" />
              <mxPoint x="320" y="220" />
            </Array>
          </mxGeometry>
        </mxCell>
        <mxCell id="GxZTiWTm0aN-phbukoy6-18" value="Ano" style="edgeLabel;html=1;align=center;verticalAlign=middle;resizable=0;points=[];" vertex="1" connectable="0" parent="GxZTiWTm0aN-phbukoy6-17">
          <mxGeometry x="0.07" relative="1" as="geometry">
            <mxPoint as="offset" />
          </mxGeometry>
        </mxCell>
        <mxCell id="GxZTiWTm0aN-phbukoy6-11" value="Je dostatek slovíček?" style="strokeWidth=2;html=1;shape=mxgraph.flowchart.decision;whiteSpace=wrap;" vertex="1" parent="1">
          <mxGeometry x="410" y="210" width="100" height="100" as="geometry" />
        </mxCell>
        <mxCell id="GxZTiWTm0aN-phbukoy6-22" style="edgeStyle=orthogonalEdgeStyle;rounded=0;orthogonalLoop=1;jettySize=auto;html=1;entryX=1;entryY=0.5;entryDx=0;entryDy=0;exitX=0;exitY=0.5;exitDx=0;exitDy=0;exitPerimeter=0;" edge="1" parent="1" source="GxZTiWTm0aN-phbukoy6-26" target="GxZTiWTm0aN-phbukoy6-8">
          <mxGeometry relative="1" as="geometry">
            <mxPoint x="250" y="230" as="sourcePoint" />
          </mxGeometry>
        </mxCell>
        <mxCell id="GxZTiWTm0aN-phbukoy6-23" value="Ne" style="edgeLabel;html=1;align=center;verticalAlign=middle;resizable=0;points=[];" vertex="1" connectable="0" parent="GxZTiWTm0aN-phbukoy6-22">
          <mxGeometry x="-0.12" relative="1" as="geometry">
            <mxPoint as="offset" />
          </mxGeometry>
        </mxCell>
        <mxCell id="GxZTiWTm0aN-phbukoy6-21" style="edgeStyle=orthogonalEdgeStyle;rounded=0;orthogonalLoop=1;jettySize=auto;html=1;entryX=0.5;entryY=0;entryDx=0;entryDy=0;" edge="1" parent="1" source="GxZTiWTm0aN-phbukoy6-2" target="GxZTiWTm0aN-phbukoy6-28">
          <mxGeometry relative="1" as="geometry">
            <mxPoint x="630" y="440" as="targetPoint" />
          </mxGeometry>
        </mxCell>
        <mxCell id="GxZTiWTm0aN-phbukoy6-27" style="edgeStyle=orthogonalEdgeStyle;rounded=0;orthogonalLoop=1;jettySize=auto;html=1;exitX=0.5;exitY=1;exitDx=0;exitDy=0;exitPerimeter=0;entryX=0.5;entryY=0;entryDx=0;entryDy=0;" edge="1" parent="1" source="GxZTiWTm0aN-phbukoy6-26" target="GxZTiWTm0aN-phbukoy6-1">
          <mxGeometry relative="1" as="geometry" />
        </mxCell>
        <mxCell id="GxZTiWTm0aN-phbukoy6-26" value="Jsou slovíčka k naučení?" style="strokeWidth=2;html=1;shape=mxgraph.flowchart.decision;whiteSpace=wrap;" vertex="1" parent="1">
          <mxGeometry x="190" y="170" width="100" height="100" as="geometry" />
        </mxCell>
        <mxCell id="GxZTiWTm0aN-phbukoy6-28" value="Zobraz definici a možnosti" style="rounded=1;whiteSpace=wrap;html=1;" vertex="1" parent="1">
          <mxGeometry x="570" y="440" width="120" height="60" as="geometry" />
        </mxCell>
      </root>
    </mxGraphModel>
  </diagram>
</mxfile>
